<?xml version="1.0" standalone="no"?>
<!DOCTYPE svg PUBLIC "-//W3C//DTD SVG 20010904//EN"
 "http://www.w3.org/TR/2001/REC-SVG-20010904/DTD/svg10.dtd">
<svg version="1.0" xmlns="http://www.w3.org/2000/svg"
 width="866.000000pt" height="650.000000pt" viewBox="0 0 866.000000 650.000000"
 preserveAspectRatio="xMidYMid meet">

<g transform="translate(0.000000,650.000000) scale(0.100000,-0.100000)"
fill="#000000" stroke="none">
<path d="M1332 3949 c-172 -30 -262 -147 -309 -399 l-9 -45 -77 -3 c-42 -2
-77 -4 -77 -6 0 -2 -9 -48 -20 -101 -11 -53 -20 -99 -20 -101 0 -2 33 -4 73
-6 l74 -3 -68 -330 c-38 -181 -71 -340 -74 -353 l-6 -23 137 3 138 3 58 280
c32 154 65 313 74 353 l15 72 125 0 c68 0 124 2 124 4 0 2 9 48 20 101 11 53
20 99 20 101 0 2 -58 4 -129 4 l-129 0 14 66 c17 79 25 94 64 127 37 32 100
42 160 27 25 -6 54 -14 66 -17 19 -4 23 5 49 94 15 54 29 103 32 109 11 30
-223 62 -325 43z"/>
<path d="M1888 3940 c-79 -24 -116 -70 -125 -154 -10 -99 56 -156 168 -143 69
8 110 34 137 87 68 135 -34 254 -180 210z"/>
<path d="M2367 3940 c-43 -4 -82 -12 -86 -16 -6 -8 -281 -1315 -281 -1336 0
-5 61 -8 135 -8 74 0 135 2 135 5 0 5 170 824 240 1158 22 103 40 192 40 197
0 11 -66 11 -183 0z"/>
<path d="M7504 3825 c-66 -12 -127 -24 -135 -27 -10 -4 -24 -54 -44 -152 l-29
-146 -72 0 c-82 0 -74 9 -99 -108 -22 -108 -25 -102 55 -102 39 0 70 -2 70 -4
0 -2 -20 -100 -45 -218 -25 -117 -45 -235 -45 -262 0 -158 106 -248 294 -249
71 0 179 24 191 43 8 12 37 212 32 217 -2 2 -19 -4 -37 -13 -86 -44 -170 -23
-191 45 -10 35 -7 62 25 223 20 101 39 191 42 201 5 15 20 17 139 17 l134 0
11 58 c6 31 16 73 21 92 16 62 21 60 -125 60 l-133 0 34 162 c18 89 32 167 31
173 -2 8 -40 4 -124 -10z"/>
<path d="M2815 3501 c-138 -29 -142 -31 -154 -93 -13 -67 -31 -170 -31 -178 0
-3 44 9 98 26 217 73 382 47 382 -61 0 -19 -4 -35 -8 -35 -42 0 -369 -63 -412
-79 -73 -27 -125 -72 -158 -135 -23 -44 -27 -63 -27 -142 0 -83 2 -94 30 -140
23 -37 44 -56 85 -77 49 -26 63 -28 130 -25 92 5 154 33 211 95 22 24 44 43
49 43 6 0 7 -24 3 -60 l-6 -60 116 0 c101 0 116 2 121 18 24 77 126 605 126
649 0 114 -47 190 -148 240 -53 26 -67 28 -187 30 -95 2 -154 -3 -220 -16z
m241 -560 c-17 -73 -54 -118 -121 -151 -49 -24 -86 -25 -124 -5 -44 22 -54 71
-26 124 17 35 55 53 165 81 46 12 91 25 100 30 22 13 23 -6 6 -79z"/>
<path d="M4048 3496 c-59 -24 -125 -71 -157 -112 -32 -41 -43 -31 -36 34 4 31
9 66 12 76 5 18 0 19 -107 13 -62 -4 -115 -9 -118 -12 -6 -5 -191 -879 -192
-902 0 -10 33 -13 135 -13 74 0 135 2 135 4 0 4 72 354 103 497 16 74 26 91
78 137 64 56 151 71 187 31 37 -39 34 -80 -23 -364 -31 -148 -58 -278 -61
-288 -5 -16 4 -17 133 -15 l138 3 60 287 60 287 39 40 c22 22 54 47 72 56 45
21 109 20 133 -4 38 -38 35 -81 -27 -383 l-59 -288 136 0 136 0 69 333 c76
368 79 413 37 500 -15 31 -38 58 -64 75 -37 25 -49 27 -136 27 -86 0 -102 -3
-155 -29 -33 -16 -85 -53 -115 -82 -30 -29 -57 -51 -61 -49 -4 3 -10 18 -13
34 -8 38 -63 100 -104 117 -53 22 -169 17 -235 -10z"/>
<path d="M5410 3500 c-169 -61 -281 -209 -325 -429 -51 -248 57 -437 280 -496
87 -22 253 -20 351 5 43 11 82 24 87 29 8 8 47 231 41 231 -2 0 -39 -12 -81
-27 -98 -33 -243 -37 -308 -9 -73 31 -115 89 -115 156 l0 30 277 2 278 3 18
65 c12 40 20 100 20 155 1 75 -3 98 -22 138 -33 68 -100 123 -179 147 -88 27
-245 27 -322 0z m240 -195 c25 -22 53 -95 48 -126 l-3 -24 -162 -3 c-90 -1
-163 0 -163 3 0 3 9 23 20 45 26 50 85 108 124 120 44 13 113 6 136 -15z"/>
<path d="M6589 3496 c-65 -26 -101 -50 -148 -100 -19 -20 -39 -36 -43 -36 -5
0 -6 34 -2 75 l7 75 -64 -1 c-35 0 -86 -4 -114 -7 l-49 -7 -13 -60 c-6 -33
-48 -235 -92 -448 -45 -214 -81 -393 -81 -398 0 -5 59 -9 134 -9 l133 0 21 98
c11 53 38 183 59 287 l38 190 45 44 c25 24 59 50 77 58 47 19 116 17 143 -5
41 -34 37 -97 -24 -391 -31 -145 -56 -268 -56 -272 0 -5 60 -9 134 -9 l134 0
12 53 c141 655 146 716 72 816 -37 50 -92 71 -187 71 -61 0 -94 -6 -136 -24z"/>
<path d="M1726 3478 c-13 -50 -7 -65 40 -96 l46 -29 -57 -8 c-47 -5 -58 -10
-66 -31 -14 -38 -13 -41 39 -76 l47 -33 -57 -8 c-52 -8 -57 -12 -63 -38 -8
-35 2 -49 54 -81 l36 -23 -49 -7 c-70 -10 -76 -14 -76 -50 0 -28 7 -37 48 -63
l47 -30 -50 -5 c-61 -6 -71 -13 -77 -44 -6 -30 -4 -34 51 -74 l45 -32 -50 0
c-27 0 -54 -4 -61 -8 -6 -4 -20 -42 -31 -85 l-20 -78 61 3 61 3 9 36 c8 34 12
37 54 43 25 3 61 6 79 6 37 0 39 2 48 46 7 29 4 34 -38 60 -25 16 -46 32 -46
37 0 4 22 7 50 7 38 0 52 4 60 19 19 36 11 57 -37 92 l-48 34 55 3 c58 3 70
12 70 53 0 19 -10 34 -40 54 -22 15 -40 32 -40 36 0 5 22 9 49 9 53 0 55 1 65
43 6 24 1 31 -38 59 -25 17 -43 35 -40 40 3 4 25 8 50 8 39 0 46 3 54 26 15
39 14 41 -52 90 -64 47 -67 52 -54 92 7 21 5 22 -57 22 -59 0 -65 -2 -71 -22z"/>
</g>
</svg>
